<?xml version="1.0" encoding="utf-8"?>
<!-- Generator: Adobe Illustrator 24.0.0, SVG Export Plug-In . SVG Version: 6.00 Build 0)  -->
<svg version="1.1" id="Layer_1" xmlns="http://www.w3.org/2000/svg" xmlns:xlink="http://www.w3.org/1999/xlink" x="0px" y="0px"
	 viewBox="0 0 984.6 130.49" style="enable-background:new 0 0 984.6 130.49;" xml:space="preserve">
<style type="text/css">
	.st0{fill:#124E8A;}
	.st1{fill:#34BACB;}
	.st2{fill:#FFFFFF;stroke:#35BACB;stroke-width:4.2568;stroke-miterlimit:10;}
	.st3{fill:none;stroke:#35BACB;stroke-width:4.2568;stroke-linecap:round;stroke-linejoin:round;stroke-miterlimit:10;}
	.st4{fill:#0C5298;}
	.st5{fill:#FFFFFF;}
	.st6{fill:#FFFFFF;stroke:#35BACB;stroke-width:11.1918;stroke-miterlimit:10;}
	.st7{fill:none;stroke:#35BACB;stroke-width:11.1918;stroke-linecap:round;stroke-linejoin:round;stroke-miterlimit:10;}
</style>
<g>
	<path class="st0" d="M207.78,56.63v36.6c0,4.94-2.81,7.4-8.43,7.4h-8.43v-44h-8.51c-4.54,0-6.81-2.26-6.81-6.77V43.1h40.77
		c4.54,0,6.81,2.26,6.81,6.77s-2.27,6.77-6.81,6.77H207.78z"/>
	<path class="st0" d="M262.12,76.12l7.66,10.47c2.07,2.47,3.06,4.7,2.98,6.7c-0.08,2-1.1,3.79-3.04,5.38
		c-1.94,1.59-3.99,2.35-6.15,2.28c-2.16-0.07-4.36-1.4-6.6-3.98l-13.32-18.21v14.38c0,4.94-2.81,7.4-8.43,7.4h-8.43V43.1h8.43h19.06
		c4.71,0,8.63,1.81,11.75,5.43c3.12,3.62,4.68,7.5,4.68,11.64C270.72,67.57,267.85,72.89,262.12,76.12z M243.65,54.67v13.11h4.85
		c4.77,0,7.15-2.18,7.15-6.55c0-4.37-2.38-6.55-7.15-6.55H243.65z"/>
	<path class="st0" d="M293.4,90.42l-1.62,4.34c-1.45,3.86-3.82,5.79-7.13,5.79c-3.3,0-5.67-1.01-7.11-3.04
		c-1.43-2.03-2.15-3.85-2.15-5.47s0.36-3.21,1.06-4.77l20.13-44.17h5.45c3.63,0,6.31,1.93,8.04,5.79l17.62,38.39
		c0.74,1.59,1.11,3.19,1.11,4.81c0,1.62-0.7,3.43-2.09,5.45c-1.39,2.01-3.77,3.02-7.13,3.02c-3.36,0-5.77-1.93-7.21-5.79l-1.62-4.34
		H293.4z M305.74,76.8l-3.66-9.96l-3.66,9.96H305.74z"/>
	<path class="st0" d="M367.15,68.71V50.5c0-4.94,2.81-7.4,8.43-7.4h8.43v50.05c0,4.94-2.81,7.4-8.43,7.4c-3.12,0-5.59-1.08-7.4-3.23
		l-18.9-22.47v18.3c0,4.94-2.81,7.4-8.43,7.4h-8.43V43.14l8.43-0.04c3.6-0.03,6.18,1.13,7.75,3.49L367.15,68.71z"/>
	<path class="st0" d="M411.22,100.72c-5.46,0-10.76-0.87-15.9-2.6c-5.13-1.73-7.7-4.61-7.7-8.64c0-4.03,1.01-6.89,3.02-8.6
		c8.91,3.97,15.3,5.82,19.17,5.53c3.87-0.28,5.81-1.28,5.81-2.98c0-1.67-1.04-3-3.11-3.98c-2.07-0.98-4.96-2.08-8.66-3.3
		c-3.7-1.22-6.02-2.28-6.96-3.19c-4.31-2.86-6.4-7.11-6.26-12.75c0.14-5.63,2.01-10.15,5.62-13.55c3.52-3.35,8.03-5.09,13.53-5.23
		c5.5-0.14,12.5,1.79,20.98,5.79c-1.45,8.48-4.31,12.16-8.6,11.02c-11.29-4.03-16.79-4.16-16.51-0.38c0,1.5,1.02,2.8,3.04,3.89
		c2.03,1.09,4.89,2.28,8.58,3.58c3.69,1.29,6.03,2.28,7.02,2.96c4.09,3.23,6.13,7.77,6.13,13.6c0,5.83-1.87,10.45-5.62,13.85
		C421.22,99.06,416.68,100.72,411.22,100.72z"/>
</g>
<g>
	<path class="st1" d="M442.48,100.55c-5.62,0.03-8.43-2.44-8.43-7.4V43.1h35.41v6.77c0,4.51-2.19,6.77-6.55,6.77h-12v8.26h16.85
		v6.81c0,4.54-2.19,6.81-6.55,6.81h-10.3v14.64C450.91,98.05,448.1,100.52,442.48,100.55z"/>
	<path class="st1" d="M533.94,71.27c0,8.88-2.88,16.07-8.64,21.56c-5.76,5.49-13.05,8.23-21.87,8.23c-8.82,0-16.09-2.75-21.79-8.23
		c-5.7-5.49-8.55-12.68-8.55-21.56c0-8.88,2.84-16.08,8.51-21.6c5.67-5.52,12.99-8.28,21.94-8.28c8.95,0,16.26,2.76,21.92,8.28
		C531.11,55.19,533.94,62.39,533.94,71.27z M513.76,60.59c-2.55-2.81-5.96-4.21-10.21-4.21c-4.26,0-7.67,1.41-10.26,4.24
		c-2.58,2.82-3.87,6.38-3.87,10.68c0,4.3,1.29,7.84,3.87,10.62c2.58,2.78,5.99,4.17,10.24,4.17c4.24,0,7.64-1.4,10.21-4.21
		c2.57-2.81,3.85-6.36,3.85-10.64C517.6,66.94,516.32,63.4,513.76,60.59z M506.08,22.39c-2.11,0.47-3.85,1.82-5.21,4.06
		c-1.36,2.24-2.6,4.66-3.72,7.26c-1.12,2.6-0.73,4.62,1.17,6.06l3.28,3.28c4.77-3.57,8.15-6.21,10.17-7.92c2.01-1.7,2.92-3.7,2.72-6
		c-0.2-2.3-1.12-4.11-2.77-5.45C510.08,22.36,508.2,21.92,506.08,22.39z"/>
	<path class="st1" d="M572.88,76.12l7.66,10.47c2.07,2.47,3.06,4.7,2.98,6.7c-0.08,2-1.1,3.79-3.04,5.38
		c-1.94,1.59-3.99,2.35-6.15,2.28c-2.16-0.07-4.36-1.4-6.6-3.98l-13.32-18.21v14.38c0,4.94-2.81,7.4-8.43,7.4h-8.43V43.1h8.43h19.06
		c4.71,0,8.63,1.81,11.75,5.43c3.12,3.62,4.68,7.5,4.68,11.64C581.47,67.57,578.61,72.89,572.88,76.12z M554.41,54.67v13.11h4.85
		c4.77,0,7.15-2.18,7.15-6.55c0-4.37-2.38-6.55-7.15-6.55H554.41z"/>
	<path class="st1" d="M614.88,60.8l11.83-14.21c1.93-2.33,4.54-3.49,7.83-3.49h8.43v50.05c0,4.94-2.81,7.4-8.43,7.4
		c-5.62,0-8.43-2.47-8.43-7.4V69.65l-11.23,13.19l-11.24-13.11v23.41c0,4.94-2.81,7.4-8.43,7.4h-8.43V43.1h8.43
		c3.23,0.03,5.81,1.19,7.75,3.49L614.88,60.8z"/>
	<path class="st1" d="M664.59,90.42l-1.62,4.34c-1.45,3.86-3.82,5.79-7.13,5.79s-5.67-1.01-7.11-3.04
		c-1.43-2.03-2.15-3.85-2.15-5.47s0.36-3.21,1.06-4.77l20.13-44.17h5.45c3.63,0,6.31,1.93,8.04,5.79l17.62,38.39
		c0.74,1.59,1.11,3.19,1.11,4.81c0,1.62-0.7,3.43-2.09,5.45c-1.39,2.01-3.77,3.02-7.13,3.02c-3.36,0-5.77-1.93-7.21-5.79l-1.62-4.34
		H664.59z M676.93,76.8l-3.66-9.96l-3.66,9.96H676.93z"/>
	<path class="st1" d="M724.81,56.63v36.6c0,4.94-2.81,7.4-8.43,7.4h-8.43v-44h-8.51c-4.54,0-6.81-2.26-6.81-6.77V43.1h40.77
		c4.54,0,6.81,2.26,6.81,6.77s-2.27,6.77-6.81,6.77H724.81z"/>
	<path class="st1" d="M743.83,100.55V43.1h35.41v6.77c0,4.51-2.19,6.77-6.55,6.77h-12v8.26h16.85v6.81c0,4.54-2.19,6.81-6.55,6.81
		h-10.3v8.51h18.56v6.77c0,4.51-2.19,6.77-6.55,6.77H743.83z"/>
</g>
<g>
	<path class="st2" d="M69.32,86.14"/>
	<path class="st3" d="M92.22,49.67c0,0,7.38-1.9,17.93-2.71c-1.19-21.1-10.26-34.74-10.26-34.74
		c-25.58,8.75-42.21,37.13-42.21,37.13C44.8,76.38,62.05,86.67,69.56,89.72C66.12,80.98,61.88,60.33,92.22,49.67z"/>
	<path class="st3" d="M57.68,48.83c0,0,2.97-5.06,8.32-11.57C52.78,25.69,39.59,22.91,39.59,22.91
		c-10.64,21.04-3.71,48.88-3.71,48.88c9.15,26.84,28.45,19.7,33.45,17.31C61.69,85.92,44.93,75.57,57.68,48.83z"/>
	<path class="st3" d="M71.49,93.81c0,0-18.4-30.38,20.73-44.14c0,0,35.2-9.11,62,4.11c0,0-5.9,29.48-35.92,49.67
		C118.31,103.45,88.47,125.79,71.49,93.81z"/>
	<path class="st3" d="M35.88,71.81c0,0-1.47-5.91-2.01-14.34c-17.23,1-28.32,8.61-28.32,8.61c7.25,20.28,30.04,33.2,30.04,33.2
		c20.96,9.64,29.13-3.02,31.77-9.3C60.45,92.62,44.08,95.88,35.88,71.81z"/>
</g>
<rect x="798.25" y="20.67" class="st4" width="175.2" height="102.71"/>
<g>
	<path class="st5" d="M833.47,44.36c3.36,0,6.23,0.49,8.59,1.47c2.36,0.98,4.29,2.28,5.77,3.88c1.48,1.61,2.56,3.44,3.25,5.5
		c0.67,2.06,1.02,4.2,1.02,6.4c0,2.17-0.34,4.29-1.02,6.37c-0.68,2.09-1.76,3.93-3.25,5.54c-1.48,1.61-3.4,2.9-5.77,3.88
		c-2.36,0.98-5.23,1.47-8.59,1.47h-12.44v19.3H809.2V44.36H833.47z M830.23,69.69c1.36,0,2.66-0.1,3.92-0.3
		c1.26-0.2,2.36-0.59,3.32-1.17c0.95-0.58,1.72-1.4,2.3-2.45c0.58-1.06,0.86-2.44,0.86-4.15c0-1.71-0.29-3.09-0.86-4.15
		c-0.58-1.06-1.35-1.87-2.3-2.45c-0.96-0.58-2.06-0.97-3.32-1.17c-1.26-0.2-2.56-0.3-3.92-0.3h-9.2v16.13H830.23z"/>
	<path class="st5" d="M888.5,44.36c2.41,0,4.58,0.39,6.52,1.17c1.93,0.78,3.59,1.85,4.97,3.2c1.38,1.36,2.44,2.93,3.17,4.71
		c0.72,1.79,1.09,3.71,1.09,5.77c0,3.17-0.67,5.91-2,8.21c-1.33,2.31-3.5,4.07-6.52,5.28v0.15c1.46,0.4,2.67,1.02,3.62,1.85
		c0.96,0.83,1.74,1.81,2.34,2.94c0.6,1.13,1.04,2.37,1.32,3.73c0.28,1.36,0.47,2.71,0.56,4.07c0.05,0.86,0.1,1.86,0.15,3.02
		c0.05,1.15,0.14,2.34,0.26,3.54c0.12,1.21,0.33,2.35,0.6,3.43c0.28,1.09,0.69,2,1.25,2.75H894c-0.66-1.71-1.06-3.74-1.21-6.1
		c-0.15-2.36-0.37-4.63-0.67-6.78c-0.4-2.82-1.26-4.88-2.56-6.18c-1.31-1.31-3.44-1.96-6.41-1.96h-11.83v21.03h-11.83V44.36H888.5z
		 M884.28,68.71c2.71,0,4.75-0.6,6.1-1.81c1.36-1.2,2.04-3.17,2.04-5.88c0-2.61-0.68-4.51-2.04-5.69c-1.36-1.18-3.39-1.77-6.1-1.77
		h-12.97v15.15H884.28z"/>
	<path class="st5" d="M913.37,60.3c1.2-3.44,2.94-6.44,5.2-9.01c2.26-2.56,5.04-4.57,8.33-6.03c3.29-1.46,6.99-2.19,11.12-2.19
		c4.17,0,7.89,0.73,11.16,2.19c3.26,1.46,6.03,3.47,8.29,6.03c2.26,2.56,4,5.56,5.2,9.01c1.21,3.44,1.81,7.18,1.81,11.19
		c0,3.92-0.6,7.58-1.81,10.97c-1.2,3.39-2.94,6.34-5.2,8.86c-2.26,2.51-5.02,4.48-8.29,5.91c-3.27,1.44-6.99,2.15-11.16,2.15
		c-4.12,0-7.83-0.72-11.12-2.15c-3.29-1.43-6.07-3.4-8.33-5.91c-2.26-2.52-4-5.47-5.2-8.86c-1.21-3.39-1.81-7.05-1.81-10.97
		C911.56,67.48,912.16,63.74,913.37,60.3z M924.19,78.09c0.53,2.14,1.37,4.06,2.53,5.77c1.15,1.71,2.66,3.08,4.52,4.11
		c1.86,1.03,4.12,1.55,6.78,1.55c2.66,0,4.93-0.52,6.78-1.55c1.86-1.03,3.37-2.4,4.52-4.11c1.16-1.71,2-3.63,2.53-5.77
		c0.53-2.13,0.79-4.33,0.79-6.59c0-2.36-0.26-4.65-0.79-6.86c-0.53-2.21-1.37-4.18-2.53-5.92c-1.15-1.73-2.66-3.12-4.52-4.15
		c-1.86-1.02-4.12-1.55-6.78-1.55c-2.66,0-4.93,0.52-6.78,1.55c-1.86,1.03-3.37,2.42-4.52,4.15c-1.16,1.74-2,3.71-2.53,5.92
		c-0.53,2.21-0.79,4.5-0.79,6.86C923.4,73.76,923.66,75.96,924.19,78.09z"/>
</g>
<g>
	<path class="st0" d="M227.9-413.29v36.6c0,4.94-2.81,7.4-8.43,7.4h-8.43v-44h-8.51c-4.54,0-6.81-2.26-6.81-6.77v-6.77h40.77
		c4.54,0,6.81,2.26,6.81,6.77s-2.27,6.77-6.81,6.77H227.9z"/>
	<path class="st0" d="M282.24-393.8l7.66,10.47c2.07,2.47,3.06,4.7,2.98,6.7c-0.08,2-1.1,3.79-3.04,5.38
		c-1.94,1.59-3.99,2.35-6.15,2.28c-2.16-0.07-4.36-1.4-6.6-3.98l-13.32-18.21v14.38c0,4.94-2.81,7.4-8.43,7.4h-8.43v-57.45h8.43
		h19.06c4.71,0,8.63,1.81,11.75,5.43c3.12,3.62,4.68,7.5,4.68,11.64C290.84-402.35,287.97-397.03,282.24-393.8z M263.77-415.25
		v13.11h4.85c4.77,0,7.15-2.18,7.15-6.55c0-4.37-2.38-6.55-7.15-6.55H263.77z"/>
	<path class="st0" d="M313.52-379.5l-1.62,4.34c-1.45,3.86-3.82,5.79-7.13,5.79c-3.3,0-5.67-1.01-7.11-3.04
		c-1.43-2.03-2.15-3.85-2.15-5.47c0-1.62,0.36-3.21,1.06-4.77l20.13-44.17h5.45c3.63,0,6.31,1.93,8.04,5.79l17.62,38.39
		c0.74,1.59,1.11,3.19,1.11,4.81c0,1.62-0.7,3.43-2.09,5.45c-1.39,2.01-3.77,3.02-7.13,3.02c-3.36,0-5.77-1.93-7.21-5.79l-1.62-4.34
		H313.52z M325.86-393.12l-3.66-9.96l-3.66,9.96H325.86z"/>
	<path class="st0" d="M387.27-401.2v-18.21c0-4.94,2.81-7.4,8.43-7.4h8.43v50.05c0,4.94-2.81,7.4-8.43,7.4
		c-3.12,0-5.59-1.08-7.4-3.23l-18.9-22.47v18.3c0,4.94-2.81,7.4-8.43,7.4h-8.43v-57.41l8.43-0.04c3.6-0.03,6.18,1.14,7.75,3.49
		L387.27-401.2z"/>
	<path class="st0" d="M431.34-369.2c-5.46,0-10.76-0.87-15.9-2.6c-5.13-1.73-7.7-4.61-7.7-8.64c0-4.03,1.01-6.89,3.02-8.6
		c8.91,3.97,15.3,5.82,19.17,5.53c3.87-0.28,5.81-1.28,5.81-2.98c0-1.67-1.04-3-3.11-3.98c-2.07-0.98-4.96-2.08-8.66-3.3
		c-3.7-1.22-6.02-2.28-6.96-3.19c-4.31-2.86-6.4-7.11-6.26-12.75c0.14-5.63,2.01-10.15,5.62-13.55c3.52-3.35,8.03-5.09,13.53-5.23
		c5.5-0.14,12.5,1.79,20.98,5.79c-1.45,8.48-4.31,12.16-8.6,11.02c-11.29-4.03-16.79-4.16-16.51-0.38c0,1.5,1.02,2.8,3.04,3.89
		c2.03,1.09,4.89,2.28,8.58,3.58c3.69,1.29,6.03,2.28,7.02,2.96c4.09,3.23,6.13,7.77,6.13,13.6c0,5.83-1.87,10.45-5.62,13.85
		C441.33-370.86,436.8-369.2,431.34-369.2z"/>
</g>
<g>
	<path class="st1" d="M462.6-369.37c-5.62,0.03-8.43-2.44-8.43-7.4v-50.05h35.41v6.77c0,4.51-2.19,6.77-6.55,6.77h-12v8.26h16.85
		v6.81c0,4.54-2.19,6.81-6.55,6.81h-10.3v14.64C471.02-371.86,468.22-369.4,462.6-369.37z"/>
	<path class="st1" d="M554.05-398.65c0,8.88-2.88,16.07-8.64,21.56c-5.76,5.49-13.05,8.23-21.87,8.23c-8.82,0-16.09-2.75-21.79-8.23
		c-5.7-5.49-8.55-12.68-8.55-21.56c0-8.88,2.84-16.08,8.51-21.6c5.67-5.52,12.99-8.28,21.94-8.28c8.95,0,16.26,2.76,21.92,8.28
		C551.22-414.73,554.05-407.53,554.05-398.65z M533.88-409.33c-2.55-2.81-5.96-4.21-10.21-4.21c-4.26,0-7.67,1.41-10.26,4.24
		c-2.58,2.82-3.87,6.38-3.87,10.68c0,4.3,1.29,7.84,3.87,10.62c2.58,2.78,5.99,4.17,10.24,4.17c4.24,0,7.64-1.4,10.21-4.21
		c2.57-2.81,3.85-6.36,3.85-10.64S536.44-406.52,533.88-409.33z M526.2-447.53c-2.11,0.47-3.85,1.82-5.21,4.06
		c-1.36,2.24-2.6,4.66-3.72,7.26c-1.12,2.6-0.73,4.62,1.17,6.06l3.28,3.28c4.77-3.57,8.15-6.21,10.17-7.92c2.01-1.7,2.92-3.7,2.72-6
		c-0.2-2.3-1.12-4.11-2.77-5.45C530.19-447.56,528.31-447.99,526.2-447.53z"/>
	<path class="st1" d="M592.99-393.8l7.66,10.47c2.07,2.47,3.06,4.7,2.98,6.7c-0.08,2-1.1,3.79-3.04,5.38
		c-1.94,1.59-3.99,2.35-6.15,2.28c-2.16-0.07-4.36-1.4-6.6-3.98l-13.32-18.21v14.38c0,4.94-2.81,7.4-8.43,7.4h-8.43v-57.45h8.43
		h19.06c4.71,0,8.63,1.81,11.75,5.43c3.12,3.62,4.68,7.5,4.68,11.64C601.59-402.35,598.73-397.03,592.99-393.8z M574.53-415.25
		v13.11h4.85c4.77,0,7.15-2.18,7.15-6.55c0-4.37-2.38-6.55-7.15-6.55H574.53z"/>
	<path class="st1" d="M635-409.12l11.83-14.21c1.93-2.33,4.54-3.49,7.83-3.49h8.43v50.05c0,4.94-2.81,7.4-8.43,7.4
		c-5.62,0-8.43-2.47-8.43-7.4v-23.49L635-387.07l-11.24-13.11v23.41c0,4.94-2.81,7.4-8.43,7.4h-8.43v-57.45h8.43
		c3.23,0.03,5.81,1.19,7.75,3.49L635-409.12z"/>
	<path class="st1" d="M684.71-379.5l-1.62,4.34c-1.45,3.86-3.82,5.79-7.13,5.79c-3.3,0-5.67-1.01-7.11-3.04
		c-1.43-2.03-2.15-3.85-2.15-5.47c0-1.62,0.36-3.21,1.06-4.77l20.13-44.17h5.45c3.63,0,6.31,1.93,8.04,5.79l17.62,38.39
		c0.74,1.59,1.11,3.19,1.11,4.81c0,1.62-0.7,3.43-2.09,5.45c-1.39,2.01-3.77,3.02-7.13,3.02c-3.36,0-5.77-1.93-7.21-5.79l-1.62-4.34
		H684.71z M697.05-393.12l-3.66-9.96l-3.66,9.96H697.05z"/>
	<path class="st1" d="M744.93-413.29v36.6c0,4.94-2.81,7.4-8.43,7.4h-8.43v-44h-8.51c-4.54,0-6.81-2.26-6.81-6.77v-6.77h40.77
		c4.54,0,6.81,2.26,6.81,6.77s-2.27,6.77-6.81,6.77H744.93z"/>
	<path class="st1" d="M763.95-369.37v-57.45h35.41v6.77c0,4.51-2.19,6.77-6.55,6.77h-12v8.26h16.85v6.81c0,4.54-2.19,6.81-6.55,6.81
		h-10.3v8.51h18.56v6.77c0,4.51-2.19,6.77-6.55,6.77H763.95z"/>
</g>
<rect x="818.36" y="-449.25" class="st4" width="175.2" height="102.71"/>
<g>
	<path class="st5" d="M853.59-425.56c3.36,0,6.23,0.49,8.59,1.47s4.29,2.28,5.77,3.88c1.48,1.61,2.56,3.44,3.24,5.5
		c0.67,2.06,1.02,4.2,1.02,6.4c0,2.17-0.34,4.29-1.02,6.37c-0.68,2.09-1.76,3.93-3.24,5.54c-1.48,1.61-3.4,2.9-5.77,3.88
		c-2.36,0.98-5.23,1.47-8.59,1.47h-12.44v19.3h-11.83v-53.82H853.59z M850.35-400.23c1.36,0,2.66-0.1,3.92-0.3
		c1.26-0.2,2.36-0.59,3.32-1.17c0.95-0.58,1.72-1.4,2.3-2.45c0.58-1.06,0.86-2.44,0.86-4.15c0-1.71-0.29-3.09-0.86-4.15
		c-0.58-1.06-1.35-1.87-2.3-2.45c-0.96-0.58-2.06-0.97-3.32-1.17c-1.26-0.2-2.56-0.3-3.92-0.3h-9.2v16.13H850.35z"/>
	<path class="st5" d="M908.62-425.56c2.41,0,4.58,0.39,6.52,1.17c1.93,0.78,3.59,1.85,4.97,3.2c1.38,1.36,2.44,2.93,3.17,4.71
		c0.72,1.79,1.09,3.71,1.09,5.77c0,3.17-0.67,5.91-2,8.21c-1.33,2.31-3.5,4.07-6.52,5.28v0.15c1.46,0.4,2.67,1.02,3.62,1.85
		c0.96,0.83,1.74,1.81,2.34,2.94c0.6,1.13,1.04,2.37,1.32,3.73c0.28,1.36,0.47,2.71,0.56,4.07c0.05,0.86,0.1,1.86,0.15,3.02
		c0.05,1.15,0.14,2.34,0.26,3.54c0.12,1.21,0.33,2.35,0.6,3.43c0.28,1.09,0.69,2,1.25,2.75h-11.83c-0.66-1.71-1.06-3.74-1.21-6.1
		c-0.15-2.36-0.37-4.63-0.67-6.78c-0.4-2.82-1.26-4.88-2.56-6.18c-1.31-1.31-3.44-1.96-6.41-1.96h-11.83v21.03H879.6v-53.82H908.62z
		 M904.4-401.21c2.71,0,4.75-0.6,6.1-1.81c1.36-1.2,2.04-3.17,2.04-5.88c0-2.61-0.68-4.51-2.04-5.69c-1.36-1.18-3.39-1.77-6.1-1.77
		h-12.97v15.15H904.4z"/>
	<path class="st5" d="M933.49-409.61c1.2-3.44,2.94-6.44,5.2-9.01c2.26-2.56,5.04-4.57,8.33-6.03c3.29-1.46,6.99-2.19,11.12-2.19
		c4.17,0,7.89,0.73,11.16,2.19c3.26,1.46,6.03,3.47,8.29,6.03c2.26,2.56,4,5.56,5.2,9.01c1.21,3.44,1.81,7.18,1.81,11.2
		c0,3.92-0.6,7.58-1.81,10.97c-1.2,3.39-2.94,6.34-5.2,8.86c-2.26,2.51-5.02,4.48-8.29,5.91c-3.27,1.44-6.99,2.15-11.16,2.15
		c-4.12,0-7.83-0.72-11.12-2.15c-3.29-1.43-6.07-3.4-8.33-5.91c-2.26-2.52-4-5.47-5.2-8.86c-1.21-3.39-1.81-7.05-1.81-10.97
		C931.68-402.44,932.28-406.17,933.49-409.61z M944.31-391.82c0.53,2.14,1.37,4.06,2.53,5.77c1.15,1.71,2.66,3.08,4.52,4.11
		c1.86,1.03,4.12,1.55,6.78,1.55s4.93-0.52,6.78-1.55c1.86-1.03,3.37-2.4,4.52-4.11c1.16-1.71,2-3.63,2.53-5.77
		c0.53-2.13,0.79-4.33,0.79-6.59c0-2.36-0.26-4.65-0.79-6.86c-0.53-2.21-1.37-4.18-2.53-5.92c-1.15-1.73-2.66-3.12-4.52-4.15
		c-1.86-1.02-4.12-1.55-6.78-1.55s-4.93,0.52-6.78,1.55c-1.86,1.03-3.37,2.42-4.52,4.15c-1.16,1.74-2,3.71-2.53,5.92
		c-0.53,2.21-0.79,4.5-0.79,6.86C943.51-396.15,943.78-393.96,944.31-391.82z"/>
</g>
<g>
	<path class="st6" d="M173.22-841.76"/>
	<path class="st7" d="M233.42-937.65c0,0,19.39-5,47.15-7.12c-3.12-55.48-26.97-91.33-26.97-91.33
		c-67.27,22.99-110.97,97.62-110.97,97.62c-33.88,71.05,11.49,98.09,31.23,106.13C164.81-855.34,153.67-909.61,233.42-937.65z"/>
	<path class="st7" d="M142.62-939.85c0,0,7.82-13.32,21.88-30.42c-34.76-30.44-69.45-37.75-69.45-37.75
		c-27.96,55.33-9.76,128.52-9.76,128.52c24.04,70.56,74.79,51.8,87.94,45.52C153.16-842.33,109.1-869.55,142.62-939.85z"/>
	<path class="st7" d="M178.92-821.61c0,0-48.39-79.86,54.5-116.04c0,0,92.55-23.96,163.02,10.81c0,0-15.5,77.52-94.43,130.6
		C302.01-796.24,223.55-737.52,178.92-821.61z"/>
	<path class="st7" d="M85.29-879.43c0,0-3.85-15.55-5.29-37.71c-45.31,2.63-74.45,22.63-74.45,22.63
		c19.06,53.31,78.98,87.28,78.98,87.28c55.11,25.34,76.58-7.95,83.52-24.46C149.91-824.72,106.85-816.15,85.29-879.43z"/>
</g>
</svg>
